<?xml version="1.0" encoding="UTF-8"?> <svg xmlns="http://www.w3.org/2000/svg" width="239.594" height="61.172" viewBox="0 0 239.594 61.172"><g id="Gruppe_296" data-name="Gruppe 296" transform="translate(-9.698 -109.238)"><g id="Gruppe_296-2" data-name="Gruppe 296" transform="translate(9.698 109.238)"><path id="Pfad_115" data-name="Pfad 115" d="M82.257,119.75a3.8,3.8,0,0,0,2.9-1.473,4.5,4.5,0,0,0,1.281-2.943,1.494,1.494,0,0,0-1.676-1.677,3.569,3.569,0,0,0-2.9,1.479,4.865,4.865,0,0,0-1.159,3.057A1.389,1.389,0,0,0,82.257,119.75Z" transform="translate(-16.807 -109.681)" fill="#8eb521"></path><path id="Pfad_116" data-name="Pfad 116" d="M121.389,156.235c3.288-.983,7.68-2.389,12.243-3.417a33.166,33.166,0,0,1,10-.824c1.182.072.8.106,1.376.1a1.554,1.554,0,0,0,.689-.12.422.422,0,0,0,.216-.488c-.28-1.509-9.884-4.29-18.966-2.243-9.123,2.057-11.68,6.305-11.351,7.77C115.787,157.859,118.239,157.176,121.389,156.235Z" transform="translate(-20.298 -113.171)" fill="#8eb521"></path><path id="Pfad_117" data-name="Pfad 117" d="M122.173,142.767c.741.461,1.862-.208,3.855-3.468,2.063-3.374,4.738-8.059,7.772-12.937a122.748,122.748,0,0,1,8.57-11.816c1.161-1.46,2.094-2.637,2.663-3.5a4.7,4.7,0,0,0,.577-1.074c.088-.274.09-.544-.142-.688-1.325-.823-13.487,8.65-19.519,18.345C119.9,137.356,120.859,141.95,122.173,142.767Z" transform="translate(-20.861 -109.238)" fill="#8eb521"></path><path id="Pfad_118" data-name="Pfad 118" d="M237.619,119.76a3.8,3.8,0,0,0,2.9-1.472,4.5,4.5,0,0,0,1.281-2.944,1.5,1.5,0,0,0-1.677-1.678,3.572,3.572,0,0,0-2.9,1.479,4.865,4.865,0,0,0-1.158,3.057A1.389,1.389,0,0,0,237.619,119.76Z" transform="translate(-32.362 -109.682)" fill="#8eb521"></path><path id="Pfad_119" data-name="Pfad 119" d="M266.606,132.686c-3.352.051.32.056-3.808.1l-3.137.058c-3.639.034-8.54-.1-9.646-.134,2.078-3.245,4.06-6.269,6.229-9.44,1.543-2.257,1.685-2.443,2.9-4.217.578-.8-.668-1.751-1.431-.869a12.541,12.541,0,0,0-.915,1.04c-1.065,1.254-1.219,1.459-2.569,3.167-1.717,2.233-2.3,2.964-3.952,5.245-1.374,1.806-2.356,3.3-3.456,4.943-.316-.006-1.914-.033-3.855-.158-.752-.049-3.328-.309-4.142-.364-.769-.052-1.308.911-1.5,1.376-.2.5,0,1.137.531,1.144l1.38.1c.555,0,1.525.045,2.261.067.715.022,1.423.021,2.141.021h1.788c-.963,1.532-1.851,2.91-2.663,4.192-1.392,1.485-3.048,3.187-3.974,4.161a54.038,54.038,0,0,1-5.166,4.75,40.654,40.654,0,0,1-5.638,3.857,13.04,13.04,0,0,1-5.08,1.67,2.015,2.015,0,0,1-1.586-.492,2.459,2.459,0,0,1-.73-1.986,11.705,11.705,0,0,1,.768-3.529,42.846,42.846,0,0,1,2.076-4.925q1.308-2.677,2.914-5.53c1.071-1.9,2.143-3.635,3.151-5.235.889-1.407.482-1.983-.109-1.983a6.588,6.588,0,0,0-2.017.666,4.6,4.6,0,0,0-2.139,1.652c-.635.876-1.488,2.183-2.563,3.932s-2.144,3.577-3.218,5.483l-.243.437c-.77.743-1.64,1.473-2.613,2.445a40.332,40.332,0,0,1-5.045,4.271,32.234,32.234,0,0,1-5.633,3.262,13.571,13.571,0,0,1-5.492,1.51c-2.874,0-4.275-1.061-4.275-4.234a16.026,16.026,0,0,1,.709-4.667,10.268,10.268,0,0,1,.715-1.758,20.734,20.734,0,0,0,6.727-.827,13.877,13.877,0,0,0,7.593-5.346,8.8,8.8,0,0,0,1.594-3.195,3.635,3.635,0,0,0-.943-3.277,4.3,4.3,0,0,0-2.744-.924,11.421,11.421,0,0,0-6.412,2.088,28.862,28.862,0,0,0-6.041,5.5,30.514,30.514,0,0,0-4.484,7.174,17.9,17.9,0,0,0-1.738,7.255c0,3.42,2.364,5.471,6.15,5.471a16.806,16.806,0,0,0,6.541-1.328,34.809,34.809,0,0,0,6.748-3.669,45.457,45.457,0,0,0,6.089-4.894l.188-.182-.2.435a10.48,10.48,0,0,0-1.024,4.263,3.727,3.727,0,0,0,.559,2.156,4.5,4.5,0,0,0,1.348,1.287,4.8,4.8,0,0,0,1.773.612,8.034,8.034,0,0,0,1.512.14,17.05,17.05,0,0,0,5.285-.984A20.536,20.536,0,0,0,230.824,152a58.246,58.246,0,0,0,6.887-5.62c.574-.527,1.107-1.039,1.612-1.547a16.415,16.415,0,0,0-2.124,6.9c0,2.866,1.7,4.3,5.011,4.3a22.966,22.966,0,0,0,5.071-.6A45.242,45.242,0,0,0,251.94,154a24.7,24.7,0,0,0,3.45-1.433c1.31-.675,1.846-.976,2.729-1.438,1.272-.666.459-1.9-.561-1.552a16.008,16.008,0,0,0-1.819.726c-1.017.462-1.336.558-2.565,1.032a38.876,38.876,0,0,1-3.8,1.248,14.149,14.149,0,0,1-3.716.53c-2.016,0-2.966-.557-2.966-2.685a13.9,13.9,0,0,1,.472-3.3,34.172,34.172,0,0,1,1.306-4.034c.553-1.425,1.383-2.789,2.137-4.334.741-1.52,1.539-2.579,2.32-3.975.645-.01,5.349-.09,9.595-.259,4.57-.183,8.205-.571,8.205-.571C267.838,133.882,267.588,132.671,266.606,132.686Zm-66.315,4.481a21.541,21.541,0,0,1,1.836-2.283,20.763,20.763,0,0,1,2.391-2.261,7.128,7.128,0,0,1,3-1.351c.8-.113,1.624.267,1.555,1.164a9.932,9.932,0,0,1-2.6,5.3l-.515.516a8.858,8.858,0,0,1-5.787,2.571,9.812,9.812,0,0,1-1.121,0c-.22-.015-.58-.033-.7-.048A21.173,21.173,0,0,1,200.291,137.167Z" transform="translate(-27.864 -110.098)" fill="#8eb521"></path><path id="Pfad_120" data-name="Pfad 120" d="M152.076,134.124a12.886,12.886,0,0,0-3.28-9.085l-.208-.253a16.471,16.471,0,0,0-8.923-4.746c-.467-.1-.928-.061-1.063.48a1,1,0,0,0,.767,1.124,10.785,10.785,0,0,1,5.888,3.414c1.636,1.793,2.566,4.252,2.566,8.362a24.786,24.786,0,0,1-3.948,13.587,34.718,34.718,0,0,1-9.671,9.684,46.12,46.12,0,0,1-12.572,6.082,36.472,36.472,0,0,1-11.412,2.171,36.416,36.416,0,0,1-6.915-.758c-2.92-.757-4.442-1.765-5.412-2.965A7.378,7.378,0,0,1,96.3,156.48a12.38,12.38,0,0,1,1.019-4.958,57.94,57.94,0,0,1,3.649-7c1.068-1.842,2.463-4.234,3.609-6.221.468-.8,1.157-2.095.838-2.98-.37-1.2-1.848-1.5-3.1-1.517a13.428,13.428,0,0,0-5.359,1.011,25.178,25.178,0,0,0-4.37,2.332c-.176.112-1.6,1.211-1.727,1.285s-.238.134-.266.091a.334.334,0,0,1,.055-.122c.087-.138.242-.325.436-.6.13-.188.19-.268.289-.4l.538-.716.554-.733.582-.764q.954-1.253,1.669-2.268c.956-1.308,1.274-1.992,1.255-2.359,0-.523-.234-.842-.724-.842a5.861,5.861,0,0,0-1.705.3,3,3,0,0,0-1.493.939c-1.192,1.668-3.946,6.24-4.415,6.765-.414.463-3.973,4.355-5.224,5.669-1.583,1.662-3.014,3-5.236,4.948a30.361,30.361,0,0,1-4.755,3.412,15.1,15.1,0,0,1-4.813,1.846,2.048,2.048,0,0,1-1.644-.492,2.461,2.461,0,0,1-.728-1.986,11.762,11.762,0,0,1,.767-3.53,43.4,43.4,0,0,1,2.077-4.925q1.309-2.675,2.915-5.529c1.07-1.9,2.137-3.634,3.143-5.235a9.341,9.341,0,0,0,.536-.949.671.671,0,0,0-.637-1.034,6.584,6.584,0,0,0-2.017.667,4.6,4.6,0,0,0-2.14,1.651c-.635.876-1.488,2.183-2.563,3.933s-2.144,3.576-3.217,5.483l-.269.482c-.756.724-1.608,1.442-2.557,2.392a40.312,40.312,0,0,1-5.044,4.271,32.422,32.422,0,0,1-5.633,3.263,13.588,13.588,0,0,1-5.492,1.509c-2.874,0-4.275-1.061-4.275-4.235a16.049,16.049,0,0,1,.708-4.666,10.232,10.232,0,0,1,.715-1.758,21.108,21.108,0,0,0,6.728-.827,13.873,13.873,0,0,0,7.592-5.347,8.809,8.809,0,0,0,1.595-3.194,3.639,3.639,0,0,0-.943-3.277,4.3,4.3,0,0,0-2.744-.924,11.417,11.417,0,0,0-6.413,2.088,28.881,28.881,0,0,0-6.041,5.5,30.541,30.541,0,0,0-4.483,7.174,17.9,17.9,0,0,0-1.738,7.256c0,3.42,2.363,5.471,6.149,5.471A16.81,16.81,0,0,0,48.5,155.5a34.878,34.878,0,0,0,6.747-3.669,45.46,45.46,0,0,0,6.089-4.9l.14-.134-.178.4a10.472,10.472,0,0,0-1.023,4.261,3.719,3.719,0,0,0,.559,2.157,4.477,4.477,0,0,0,1.348,1.287,4.375,4.375,0,0,0,1.777.613,11.655,11.655,0,0,0,1.506.139,14.661,14.661,0,0,0,4.744-.975,22.915,22.915,0,0,0,4.741-2.471,45.63,45.63,0,0,0,6.571-5.62c.8-.8,1.263-1.266,2.038-2.154.1-.18.257-.137.1.1-1.4,2.535-3.849,7.311-4.417,8.446-.427.856-.435,1.226-.068,1.54a3.216,3.216,0,0,0,2.148.078,10.194,10.194,0,0,0,1.226-.323,1.724,1.724,0,0,0,.957-.7A31.315,31.315,0,0,0,85.067,150a45.329,45.329,0,0,1,2.121-4.521,19.138,19.138,0,0,1,3.417-4.061,25.533,25.533,0,0,1,3.718-2.987,24.329,24.329,0,0,1,4.65-2.19c1.3-.328,2.013.014,2.217.464.2.49-.151,1.123-1.878,3.8-2.492,3.941-2.759,4.349-4.516,7.189-.733,1.223-3.145,5.3-3.145,8.9a7.371,7.371,0,0,0,2.062,5.449,14.291,14.291,0,0,0,5.046,3.124,35.874,35.874,0,0,0,11.436,1.8,32.845,32.845,0,0,0,7.257-.824,64.357,64.357,0,0,0,9.235-2.7,53.272,53.272,0,0,0,9.25-4.475,39.835,39.835,0,0,0,8.062-6.39,31.3,31.3,0,0,0,5.74-8.248A23.287,23.287,0,0,0,152.076,134.124ZM44.964,137.366a21.759,21.759,0,0,1,1.834-2.282,20.853,20.853,0,0,1,2.392-2.262,7.128,7.128,0,0,1,3-1.35c.8-.114,1.623.266,1.555,1.164a9.94,9.94,0,0,1-2.594,5.3l-.516.515a8.862,8.862,0,0,1-5.788,2.571,9.592,9.592,0,0,1-1.12,0c-.22-.014-.581-.033-.7-.048A21.21,21.21,0,0,1,44.964,137.366Z" transform="translate(-12.312 -110.316)" fill="#8eb521"></path><path id="Pfad_121" data-name="Pfad 121" d="M223.612,159.369l-.164.317a15.5,15.5,0,0,1-5.739,6.952,19.472,19.472,0,0,1-10.375,3.105,30.787,30.787,0,0,1-7.6-.773,42.546,42.546,0,0,1-10.1-3.88c-3.528-1.824-6.975-3.746-10.938-6-4.063-2.3-6.727-3.767-10.691-6.386a2.054,2.054,0,0,1-.476-.4c-.086-.114-.085-.179-.07-.214a1.032,1.032,0,0,1,.546-.478c3.812-2.54,6.707-4.565,9.8-6.869s5.615-4.164,7.545-5.807c1.541-1.314,2.63-2.239,4.112-3.6a40.036,40.036,0,0,0,3.2-3.272.923.923,0,0,0-.01-1.434.9.9,0,0,0-1.367.064,18.17,18.17,0,0,1-2.747,2.136c-.933.6-1.874,1.139-2.826,1.733a9.462,9.462,0,0,1-5.17,1.634,5.616,5.616,0,0,1-3.788-.969,2.783,2.783,0,0,1-1.323-2.538,4.658,4.658,0,0,1,1.07-3.332.5.5,0,0,0-.173-.418.754.754,0,0,0-.181-.1l-.208-.077a3.294,3.294,0,0,0-3.741,1.3,6.584,6.584,0,0,0-1.137,3.967,5.125,5.125,0,0,0,1.773,4.382,5,5,0,0,0,3.3,1.007,9.86,9.86,0,0,0,1.63-.183c.676-.119,1.354-.258,2.031-.418s1.336-.338,1.974-.537c.62-.193.75-.313,1.055-.392.259,0,.307.058.266.334a2.972,2.972,0,0,1-.262.249c-.265.232-.706.6-1.42,1.213q-2.144,1.844-5.768,4.519t-8.5,5.709a42.362,42.362,0,0,0-8.678,6.989c-.475.508-.8,1.246-.193,1.659a.845.845,0,0,0,1.239-.113c.292-.319.5-.579.709-.824a7,7,0,0,1,.683-.715,9.4,9.4,0,0,1,1.449-1.108c.4-.242.636-.308.734-.283a3.662,3.662,0,0,1,.67.279,101.531,101.531,0,0,0,10.06,6.084c3.738,2.068,7.059,3.521,10.511,5.227a58.459,58.459,0,0,0,10.351,3.81,38.167,38.167,0,0,0,10.274,1.434,24.864,24.864,0,0,0,7.421-1.079,23.922,23.922,0,0,0,6.1-2.813,16.168,16.168,0,0,0,4.3-4.131A18.4,18.4,0,0,0,225,160.168C225.4,159.141,224.123,158.43,223.612,159.369Z" transform="translate(-24.541 -111.175)" fill="#8eb521"></path><path id="Pfad_122" data-name="Pfad 122" d="M35.641,135.738a5.648,5.648,0,0,1,1.719.547c.205.1.491-.31.773-.717a7.2,7.2,0,0,0,.529-.921,10.5,10.5,0,0,0,.43-.967,2.629,2.629,0,0,0,.229-.92c0-1.009-1.061-1.392-2-1.392a8.925,8.925,0,0,0-2.854.66,18.662,18.662,0,0,0-3.622,1.748,29.215,29.215,0,0,0-2.63,1.812,21.858,21.858,0,0,0-2.547,2.216c-.985.985-2.032,2.09-3.028,3.274-.475.566-.807,1-1.052,1.278a1.2,1.2,0,0,1-.346.294.691.691,0,0,1,.03-.176,5.308,5.308,0,0,1,.269-.7c.266-.6.682-1.414,1.166-2.355,1-1.938,1.921-3.566,2.747-4.994a.771.771,0,0,0-.813-1.109,16.683,16.683,0,0,1-3.039.575,47.621,47.621,0,0,1-6.265-.094.862.862,0,0,0-1,.688c-.083.4.076.824.758.93l1.272.254a8.546,8.546,0,0,1,2.248.951c.591.382,1.069.916.99,1.479a15.168,15.168,0,0,1-.667,2.289c-.316.9-.663,1.82-.863,2.365-.4,1.088-.447,1.19-.919,2.353a36.11,36.11,0,0,1-1.572,3.359q-.44.547-1.415,1.908c-.655.907-.827,1.335-1.556,2.315s-1.53,2.309-2.077,3.186a4.649,4.649,0,0,0-.839,1.813.6.6,0,0,0,.175.382l.153.158c.029.058.085.08.2.11a1.9,1.9,0,0,0,.243.016c.179.005.4,0,.583,0a9.2,9.2,0,0,0,2.458-.585,3.579,3.579,0,0,0,2.067-1.6,22.71,22.71,0,0,0,1.457-3.21c.4-1.051.681-2.036.979-2.933a8.871,8.871,0,0,1,1.087-2.359,45.166,45.166,0,0,1,6.144-6.921,22.94,22.94,0,0,1,6.017-4,17.655,17.655,0,0,1,2.86-.9A5.287,5.287,0,0,1,35.641,135.738Z" transform="translate(-9.698 -111.454)" fill="#8eb521"></path></g></g></svg> 